<svg width="19" height="12" viewBox="0 0 19 12" fill="none" xmlns="http://www.w3.org/2000/svg">
<mask id="mask0_2218_350" style="mask-type:luminance" maskUnits="userSpaceOnUse" x="0" y="0" width="19" height="12">
<path d="M0.332001 0.395081H19V11.6048H0.332001V0.395081Z" fill="white"/>
</mask>
<g mask="url(#mask0_2218_350)">
<path d="M9.66873 2.47872C7.72746 2.47872 6.14673 4.0591 6.14673 5.99997C6.14673 7.94084 7.72746 9.52144 9.66873 9.52144C11.6102 9.52144 13.1909 7.94084 13.1909 5.99997C13.1909 4.0591 11.6102 2.47872 9.66873 2.47872ZM9.66873 8.69285C8.18334 8.69285 6.97537 7.48519 6.97537 5.99997C6.97537 4.51475 8.18334 3.30732 9.66873 3.30732C11.1543 3.30732 12.3623 4.51475 12.3623 5.99997C12.3623 7.48519 11.1543 8.69285 9.66873 8.69285ZM10.0832 4.5501C10.0832 4.77781 9.89678 4.96428 9.66873 4.96428C9.0969 4.96428 8.63287 5.42831 8.63287 5.99997C8.63287 6.22791 8.44649 6.41438 8.21844 6.41438C7.99061 6.41438 7.80423 6.22791 7.80423 5.99997C7.80423 4.97267 8.64125 4.13569 9.66873 4.13569C9.89678 4.13569 10.0832 4.32216 10.0832 4.5501ZM18.9362 5.79288C17.0259 2.47034 13.4747 0.407349 9.66873 0.407349C5.86274 0.407349 2.31176 2.47034 0.401522 5.79288C0.328826 5.92135 0.328826 6.07882 0.401522 6.20502C2.31176 9.5296 5.86274 11.5928 9.66873 11.5928C13.4747 11.5928 17.0259 9.5296 18.9362 6.20706C19.0109 6.07882 19.0109 5.92135 18.9362 5.79288ZM9.66873 10.7642C6.23777 10.7642 3.03056 8.94548 1.24058 5.99997C3.03056 3.05446 6.23777 1.23572 9.66873 1.23572C13.0999 1.23572 16.3071 3.05446 18.0971 5.99997C16.3071 8.94548 13.0999 10.7642 9.66873 10.7642Z" fill="black"/>
</g>
</svg>
