<svg width="13" height="16" viewBox="0 0 13 16" fill="none" xmlns="http://www.w3.org/2000/svg">
<mask id="mask0_2218_334" style="mask-type:luminance" maskUnits="userSpaceOnUse" x="0" y="0" width="13" height="16">
<path d="M0.506622 0.332031H12.6041V15.6679H0.506622V0.332031Z" fill="white"/>
</mask>
<g mask="url(#mask0_2218_334)">
<path d="M10.934 15.6341H0.785577C0.750103 15.6341 0.715663 15.6275 0.682945 15.6137C0.649883 15.6 0.620953 15.5807 0.595812 15.5555C0.57067 15.5304 0.551384 15.5014 0.537608 15.4683C0.524176 15.4356 0.517288 15.4011 0.517288 15.3656V0.628655C0.517288 0.593164 0.524176 0.559051 0.537608 0.525972C0.551384 0.493238 0.57067 0.463949 0.595812 0.438795C0.620953 0.413642 0.649883 0.394346 0.682945 0.380563C0.715663 0.367125 0.750103 0.360233 0.785577 0.360233H8.54494C8.61657 0.359889 8.67822 0.384009 8.73023 0.432593L12.5093 4.05094C12.5644 4.10366 12.5923 4.1681 12.5927 4.24459V13.9715C12.5927 14.026 12.5899 14.08 12.5848 14.1341C12.5793 14.1882 12.5713 14.242 12.5607 14.2954C12.5503 14.3488 12.5369 14.4015 12.5211 14.4536C12.5056 14.5056 12.4873 14.5569 12.4663 14.6072C12.4456 14.6576 12.4226 14.7065 12.3967 14.7544C12.3712 14.8026 12.3433 14.8491 12.313 14.8943C12.2831 14.9398 12.2507 14.9832 12.2163 15.0252C12.1818 15.0676 12.1453 15.1079 12.1071 15.1462C12.0685 15.1847 12.0282 15.2213 11.9862 15.2557C11.9445 15.2905 11.9008 15.3229 11.8557 15.3529C11.8106 15.3832 11.7641 15.4115 11.7162 15.437C11.668 15.4628 11.6191 15.4859 11.5688 15.5069C11.5185 15.5276 11.4675 15.5462 11.4155 15.5621C11.3635 15.5779 11.3108 15.591 11.2578 15.6017C11.2044 15.6124 11.1507 15.6206 11.0966 15.6258C11.0425 15.6313 10.9881 15.6341 10.934 15.6341ZM1.05387 15.0969H10.934C11.0078 15.0969 11.0808 15.0893 11.1527 15.0748C11.2251 15.0604 11.2953 15.039 11.3635 15.0104C11.4314 14.9821 11.4961 14.9473 11.5574 14.9063C11.6187 14.8653 11.6752 14.8185 11.7272 14.7664C11.7796 14.7141 11.826 14.6572 11.8667 14.5959C11.9077 14.5345 11.9425 14.4698 11.9704 14.4015C11.9986 14.3333 12.0199 14.263 12.0344 14.1907C12.0485 14.1183 12.0558 14.0452 12.0558 13.9715V4.3707L8.43783 0.897421H1.05387V15.0969Z" fill="#010101"/>
</g>
<mask id="mask1_2218_334" style="mask-type:luminance" maskUnits="userSpaceOnUse" x="8" y="0" width="5" height="5">
<path d="M8.28387 0.332031H12.604V4.60093H8.28387V0.332031Z" fill="white"/>
</mask>
<g mask="url(#mask1_2218_334)">
<path d="M12.3241 4.52405H9.76618C9.71797 4.52405 9.66941 4.52164 9.62119 4.51681C9.57297 4.51199 9.52476 4.50475 9.47723 4.49545C9.4297 4.4858 9.38252 4.47409 9.33637 4.45996C9.28988 4.44583 9.24407 4.42964 9.1993 4.41103C9.15453 4.39242 9.11079 4.37175 9.06808 4.34866C9.02503 4.32592 8.9837 4.30111 8.94306 4.27389C8.90277 4.24701 8.86385 4.21807 8.82631 4.1874C8.78877 4.15639 8.75295 4.124 8.71886 4.08954C8.68442 4.05509 8.6517 4.01925 8.62105 3.98169C8.5904 3.94413 8.56147 3.9052 8.5346 3.86488C8.5074 3.82457 8.4826 3.78287 8.45987 3.74015C8.43679 3.69708 8.41613 3.65332 8.39753 3.60852C8.37893 3.56373 8.36275 3.5179 8.34863 3.47138C8.33451 3.42521 8.3228 3.378 8.31315 3.33045C8.30385 3.2829 8.29662 3.23466 8.2918 3.18642C8.28698 3.13818 8.28491 3.0896 8.28491 3.04101V0.623496C8.28491 0.569398 8.29972 0.520124 8.32934 0.47533C8.3593 0.430191 8.39891 0.397456 8.4485 0.376438C8.49741 0.355074 8.54838 0.349216 8.60107 0.35852C8.65377 0.367823 8.69957 0.390565 8.73849 0.427434L12.5093 4.05095C12.5486 4.0892 12.5741 4.13468 12.5855 4.18809C12.5972 4.24184 12.5927 4.29387 12.5724 4.34453C12.552 4.39518 12.519 4.43618 12.4739 4.46685C12.4287 4.49752 12.3788 4.51302 12.3241 4.51302V4.52405ZM8.81357 1.25751V3.04101C8.81357 3.10338 8.82011 3.16506 8.83217 3.22639C8.84456 3.28738 8.86282 3.34699 8.88693 3.40453C8.91103 3.46208 8.94031 3.51652 8.97509 3.56821C9.01022 3.61989 9.04948 3.66779 9.09391 3.71189C9.13799 3.75565 9.18621 3.79493 9.23821 3.82939C9.29022 3.86385 9.34498 3.89279 9.40284 3.91622C9.46035 3.94 9.51994 3.95757 9.58089 3.96929C9.6422 3.98135 9.70385 3.98686 9.76618 3.98652H11.6666L8.81357 1.25751Z" fill="#010101"/>
</g>
<path d="M3.94477 9.09858H3.92859C3.85523 9.09996 3.78463 9.08721 3.71644 9.05964C3.64824 9.03208 3.58832 8.99211 3.53666 8.94008C3.47708 8.87254 3.43334 8.7957 3.40579 8.70956C3.37823 8.62341 3.36893 8.53555 3.37823 8.44596C3.39821 8.30917 3.44574 8.18305 3.52082 8.06728C3.59555 7.95116 3.69129 7.8564 3.8077 7.78231C4.32499 7.46152 4.87948 7.23134 5.47185 7.09179C5.83657 6.36647 6.11037 5.60807 6.29325 4.81659C6.10417 4.39276 5.94196 3.95826 5.8073 3.51376C5.73635 3.32218 5.70776 3.12405 5.72154 2.92006C5.72498 2.84667 5.74083 2.77569 5.76872 2.70746C5.79627 2.63889 5.83485 2.57721 5.88375 2.52208C5.93231 2.46695 5.98914 2.42147 6.05354 2.38563C6.11794 2.3498 6.18648 2.32568 6.25915 2.31327C6.33182 2.30087 6.40414 2.30121 6.47681 2.31362C6.54948 2.32602 6.61802 2.35014 6.68242 2.38598C6.74682 2.42181 6.8033 2.46729 6.85221 2.52277C6.90077 2.5779 6.93934 2.63958 6.96689 2.70815C7.07331 2.92937 7.11189 3.1623 7.08227 3.40625C7.0406 3.85902 6.96793 4.30662 6.86495 4.74939C7.01132 5.09569 7.19351 5.422 7.41117 5.72832C7.62883 6.03465 7.87715 6.31341 8.15577 6.56529C8.51153 6.50878 8.86937 6.48569 9.22961 6.49568C9.59984 6.55736 9.69111 6.7641 9.71522 6.88781C9.72589 6.94673 9.72451 7.00531 9.71074 7.06354C9.69731 7.12212 9.67285 7.17518 9.63738 7.22342C9.59605 7.28027 9.54508 7.32714 9.48516 7.36366C9.42523 7.40053 9.36048 7.4243 9.29126 7.43568C9.06361 7.46738 8.83768 7.45635 8.61417 7.40294C8.3903 7.34988 8.18401 7.25753 7.99493 7.12694C7.26652 7.22824 6.54535 7.36676 5.8314 7.54318C5.66196 7.85778 5.45256 8.14343 5.20356 8.40013C4.61842 8.97247 4.19963 9.09858 3.94477 9.09858ZM3.92067 8.56139C3.98748 8.56139 4.28022 8.56139 4.83298 8.0242C4.90462 7.9546 4.97109 7.88017 5.0317 7.80127C4.71072 7.89465 4.41006 8.03247 4.13006 8.21475C3.91791 8.3705 3.89656 8.49696 3.92067 8.55864V8.56139ZM6.65831 5.54191C6.52021 6.01328 6.35214 6.47363 6.15376 6.92261C6.59666 6.82061 7.04748 6.73723 7.46352 6.66762C7.1477 6.32512 6.87942 5.94919 6.65831 5.53915V5.54191ZM6.34973 2.85563C6.29669 2.89077 6.26879 2.94005 6.26638 3.00345C6.26294 3.13128 6.28464 3.25499 6.33079 3.37421C6.379 3.5272 6.43273 3.69121 6.49438 3.86316C6.51883 3.69397 6.54018 3.5272 6.55361 3.36869C6.57393 3.22845 6.55602 3.09338 6.49989 2.96313C6.4868 2.93212 6.46648 2.90628 6.43996 2.8856C6.4131 2.86528 6.38313 2.85253 6.34973 2.8477V2.85563Z" fill="#010101"/>
<path d="M4.29088 13.3965C4.25093 13.4061 4.21098 13.4133 4.17 13.4182C4.11661 13.4223 4.06289 13.4223 4.00916 13.4182C3.96163 13.4226 3.91411 13.4226 3.86692 13.4182C3.82938 13.412 3.79529 13.3975 3.76498 13.3751C3.73502 13.3527 3.71332 13.3241 3.70058 13.2893C3.68473 13.2411 3.6775 13.1918 3.67888 13.1415V11.4948C3.67612 11.4507 3.68956 11.4121 3.71917 11.3793C3.7512 11.3497 3.78771 11.328 3.82938 11.3149C3.91652 11.2853 4.00606 11.2656 4.09767 11.2556C4.19755 11.2422 4.29777 11.235 4.39833 11.2343C4.52921 11.2257 4.65767 11.2391 4.78372 11.2746C4.90977 11.3101 5.02652 11.3656 5.13363 11.441C5.21801 11.5089 5.28241 11.5919 5.32718 11.6901C5.3723 11.7887 5.39262 11.8917 5.38883 11.9999C5.38987 12.106 5.37196 12.2091 5.33511 12.3086C5.29894 12.4003 5.24522 12.4799 5.17393 12.5478C5.09506 12.6174 5.00551 12.6684 4.90564 12.7008C4.78303 12.7387 4.65801 12.7566 4.5299 12.7545H4.29088V13.3965ZM4.47341 12.2766C4.55573 12.2814 4.63012 12.259 4.69624 12.2094C4.72276 12.1815 4.74308 12.1495 4.7572 12.1136C4.77132 12.0781 4.77855 12.0409 4.77855 12.0023C4.77855 11.9641 4.77132 11.9269 4.7572 11.891C4.74308 11.8555 4.72276 11.8235 4.69624 11.7956C4.62529 11.7418 4.54574 11.7187 4.45723 11.7256H4.29088V12.2632L4.47341 12.2766Z" fill="#010101"/>
<path d="M6.51057 13.4664H6.21542L6.05183 13.4395C5.99948 13.4302 5.94816 13.4158 5.89857 13.3965C5.87136 13.3882 5.84588 13.3758 5.82246 13.3596C5.79904 13.3431 5.77872 13.3234 5.7615 13.3003C5.74428 13.2773 5.73119 13.2524 5.72224 13.2252C5.71294 13.198 5.70846 13.1701 5.70812 13.1415V11.4948C5.70536 11.4507 5.71879 11.4121 5.74841 11.3794C5.77975 11.3487 5.8166 11.3273 5.85827 11.3149C5.96159 11.2815 6.06733 11.2601 6.17512 11.2501C6.28774 11.2501 6.38727 11.2343 6.47579 11.2343C6.64351 11.2333 6.80813 11.2557 6.96966 11.3015C7.11017 11.3425 7.23657 11.4104 7.34815 11.5055C7.45836 11.6023 7.54067 11.7184 7.59509 11.8549C7.65812 12.0134 7.68739 12.1781 7.6836 12.349C7.6867 12.5175 7.65812 12.6805 7.5975 12.8379C7.5424 12.9727 7.46008 13.0881 7.35057 13.1846C7.24311 13.2821 7.11947 13.352 6.98033 13.3941C6.82776 13.4433 6.67106 13.4675 6.51057 13.4664ZM6.31461 12.9561L6.40863 12.9696H6.51333C6.58806 12.9709 6.66039 12.9592 6.73064 12.9347C6.79608 12.9117 6.85325 12.8758 6.9025 12.8272C6.95416 12.7718 6.9917 12.7084 7.01512 12.6363C7.0406 12.5488 7.053 12.4592 7.05266 12.3679C7.0592 12.2828 7.0499 12.1994 7.02511 12.1178C6.99996 12.0361 6.96105 11.9617 6.90801 11.8952C6.85704 11.8414 6.79746 11.8008 6.72927 11.7732C6.66073 11.7456 6.58978 11.7332 6.51608 11.7367H6.31461V12.9561Z" fill="#010101"/>
<path d="M9.51683 11.3039C9.53646 11.3359 9.55196 11.37 9.56229 11.4062C9.574 11.45 9.5802 11.4947 9.58124 11.5402C9.58778 11.6129 9.56781 11.6774 9.522 11.7339C9.47861 11.7759 9.42695 11.7956 9.36633 11.7928H8.63379V12.1877H9.3987C9.42006 12.2184 9.43624 12.2514 9.44692 12.2873C9.45897 12.331 9.46517 12.3758 9.46586 12.4216C9.47344 12.4926 9.45346 12.5553 9.40663 12.6094C9.36461 12.6525 9.31364 12.6722 9.25371 12.6687H8.64171V13.4047C8.6021 13.4147 8.56181 13.4219 8.52083 13.4261C8.4671 13.4302 8.41372 13.4302 8.35999 13.4261C8.31246 13.4309 8.26494 13.4309 8.21775 13.4261C8.18021 13.4199 8.14612 13.4057 8.11581 13.383C8.08654 13.3603 8.06518 13.3317 8.05141 13.2972C8.0366 13.249 8.0304 13.1997 8.03246 13.1494V11.6209C8.03109 11.5995 8.03178 11.5781 8.03522 11.5571C8.03832 11.5358 8.04349 11.5151 8.05141 11.4951C8.05898 11.4751 8.06863 11.4562 8.08034 11.4379C8.09205 11.42 8.10548 11.4034 8.12098 11.3886C8.13613 11.3735 8.15301 11.3604 8.17091 11.3487C8.18917 11.3373 8.20845 11.328 8.22843 11.3207C8.24875 11.3135 8.26941 11.3083 8.29077 11.3056C8.31177 11.3028 8.33313 11.3021 8.35448 11.3039H9.51683Z" fill="#010101"/>
</svg>
