<svg width="42" height="42" viewBox="0 0 42 42" fill="none" xmlns="http://www.w3.org/2000/svg">
<path d="M28.5749 1.57292C28.8867 1.70247 29.196 1.83984 29.502 1.98438C29.8073 2.12891 30.1094 2.2806 30.4082 2.4401C30.7064 2.59961 31.0007 2.76628 31.2904 2.9401C31.5807 3.11393 31.8659 3.29492 32.1471 3.48307C32.4284 3.67057 32.7051 3.86523 32.9766 4.06706C33.2487 4.26823 33.515 4.47656 33.776 4.69076C34.0378 4.9056 34.2936 5.1263 34.5443 5.35352C34.7949 5.58073 35.0397 5.8138 35.2793 6.05273C35.5182 6.29232 35.7513 6.53711 35.9785 6.78776C36.2057 7.03841 36.4264 7.29427 36.6413 7.55534C36.8555 7.81706 37.0638 8.08333 37.265 8.35547C37.4668 8.62695 37.6615 8.90365 37.849 9.1849C38.0371 9.4655 38.2181 9.7513 38.3919 10.0417C38.5658 10.3314 38.7324 10.6257 38.8919 10.9238C39.0514 11.2227 39.2031 11.5241 39.3477 11.8301C39.4922 12.1361 39.6296 12.4447 39.7591 12.7572C39.888 13.0697 40.0098 13.3854 40.1237 13.7038C40.2376 14.0221 40.3438 14.3431 40.4421 14.6667C40.5404 14.9909 40.6302 15.3164 40.7129 15.6445C40.7949 15.9727 40.8691 16.3027 40.9349 16.6341C41.0007 16.9661 41.0586 17.2988 41.1081 17.6335C41.1582 17.9681 41.1992 18.304 41.2324 18.6406C41.2656 18.9772 41.2904 19.3138 41.3073 19.6517C41.3236 19.9896 41.332 20.3275 41.332 20.666C41.332 21.0039 41.3236 21.3424 41.3073 21.6797C41.2904 22.0176 41.2656 22.3548 41.2324 22.6914C41.1992 23.028 41.1582 23.3639 41.1081 23.6986C41.0586 24.0326 41.0007 24.3659 40.9349 24.6979C40.8691 25.0293 40.7949 25.3594 40.7129 25.6875C40.6302 26.0156 40.5404 26.3411 40.4421 26.6647C40.3438 26.9883 40.2376 27.3099 40.1237 27.6283C40.0098 27.9466 39.888 28.2617 39.7591 28.5742C39.6296 28.8867 39.4922 29.196 39.3477 29.502C39.2031 29.8073 39.0514 30.1094 38.8919 30.4076C38.7324 30.7064 38.5658 31 38.3919 31.2904C38.2181 31.5807 38.0371 31.8659 37.849 32.1471C37.6615 32.4284 37.4668 32.7051 37.265 32.9766C37.0638 33.248 36.8555 33.515 36.6413 33.776C36.4264 34.0378 36.2057 34.2936 35.9785 34.5443C35.7513 34.7949 35.5182 35.0397 35.2793 35.2786C35.0397 35.5182 34.7949 35.7513 34.5443 35.9785C34.2936 36.2057 34.0378 36.4264 33.776 36.6406C33.515 36.8555 33.2487 37.0638 32.9766 37.265C32.7051 37.4661 32.4284 37.6608 32.1471 37.849C31.8659 38.0371 31.5807 38.2181 31.2904 38.3919C31.0007 38.5658 30.7064 38.7324 30.4082 38.8919C30.1094 39.0508 29.8073 39.2031 29.502 39.3477C29.196 39.4922 28.8867 39.6296 28.5749 39.7585C28.2624 39.888 27.9466 40.0098 27.6283 40.1237C27.3099 40.2376 26.9889 40.3438 26.6654 40.4421C26.3411 40.5404 26.0156 40.6302 25.6875 40.7122C25.3594 40.7949 25.0293 40.8685 24.6979 40.9349C24.3659 41.0007 24.0332 41.0586 23.6986 41.1081C23.3639 41.1576 23.028 41.1992 22.6914 41.2324C22.3548 41.2656 22.0176 41.2904 21.6803 41.3066C21.3424 41.3236 21.0046 41.332 20.666 41.332C20.3281 41.332 19.9896 41.3236 19.6523 41.3066C19.3145 41.2904 18.9772 41.2656 18.6406 41.2324C18.304 41.1992 17.9681 41.1576 17.6335 41.1081C17.2995 41.0586 16.9661 41.0007 16.6341 40.9349C16.3027 40.8685 15.9727 40.7949 15.6445 40.7122C15.3164 40.6302 14.9909 40.5404 14.6673 40.4421C14.3431 40.3438 14.0221 40.2376 13.7038 40.1237C13.3854 40.0098 13.0703 39.888 12.7578 39.7585C12.4453 39.6296 12.1361 39.4922 11.8301 39.3477C11.5247 39.2031 11.2227 39.0508 10.9245 38.8919C10.6257 38.7324 10.332 38.5658 10.0417 38.3919C9.7513 38.2181 9.46615 38.0371 9.1849 37.849C8.90365 37.6608 8.62695 37.4661 8.35547 37.265C8.08398 37.0638 7.81706 36.8555 7.55599 36.6406C7.29427 36.4264 7.03841 36.2057 6.78776 35.9785C6.53711 35.7513 6.29232 35.5182 6.05339 35.2786C5.8138 35.0397 5.58073 34.7949 5.35352 34.5443C5.1263 34.2936 4.9056 34.0378 4.69141 33.776C4.47656 33.515 4.26823 33.248 4.06706 32.9766C3.86589 32.7051 3.67057 32.4284 3.48307 32.1471C3.29492 31.8659 3.11393 31.5807 2.9401 31.2904C2.76628 31 2.59961 30.7064 2.4401 30.4076C2.28125 30.1094 2.12891 29.8073 1.98438 29.502C1.83984 29.196 1.70247 28.8867 1.57357 28.5742C1.44401 28.2617 1.32227 27.9466 1.20833 27.6283C1.0944 27.3099 0.988281 26.9883 0.889974 26.6647C0.791667 26.3411 0.701823 26.0156 0.619792 25.6875C0.537109 25.3594 0.463542 25.0293 0.397135 24.6979C0.33138 24.3659 0.273438 24.0326 0.223958 23.6986C0.174479 23.3639 0.132813 23.028 0.0996094 22.6914C0.0664064 22.3548 0.0416666 22.0176 0.0247396 21.6797C0.00846358 21.3424 0 21.0039 0 20.666C0 20.3275 0.00846358 19.9896 0.0247396 19.6517C0.0416666 19.3138 0.0664064 18.9772 0.0996094 18.6406C0.132813 18.304 0.174479 17.9681 0.223958 17.6335C0.273438 17.2988 0.33138 16.9661 0.397135 16.6341C0.463542 16.3027 0.537109 15.9727 0.619792 15.6445C0.701823 15.3164 0.791667 14.9909 0.889974 14.6667C0.988281 14.3431 1.0944 14.0221 1.20833 13.7038C1.32227 13.3854 1.44401 13.0697 1.57357 12.7572C1.70247 12.4447 1.83984 12.1361 1.98438 11.8301C2.12891 11.5241 2.28125 11.2227 2.4401 10.9238C2.59961 10.6257 2.76628 10.3314 2.9401 10.0417C3.11393 9.7513 3.29492 9.4655 3.48307 9.1849C3.67057 8.90365 3.86589 8.62695 4.06706 8.35547C4.26823 8.08333 4.47656 7.81706 4.69141 7.55534C4.9056 7.29427 5.1263 7.03841 5.35352 6.78776C5.58073 6.53711 5.8138 6.29232 6.05273 6.05273C6.29232 5.8138 6.53711 5.58073 6.78776 5.35352C7.03841 5.1263 7.29427 4.9056 7.55599 4.69076C7.81706 4.47656 8.08398 4.26823 8.35547 4.06706C8.62695 3.86523 8.90365 3.67057 9.1849 3.48307C9.46615 3.29492 9.7513 3.11393 10.0417 2.9401C10.332 2.76628 10.6257 2.59961 10.9245 2.4401C11.2227 2.2806 11.5247 2.12891 11.8301 1.98438C12.1361 1.83984 12.4453 1.70247 12.7578 1.57292C13.0703 1.44401 13.3854 1.32227 13.7038 1.20833C14.0221 1.0944 14.3431 0.988281 14.6673 0.889974C14.9909 0.791667 15.3164 0.701823 15.6445 0.619141C15.9727 0.537109 16.3027 0.462891 16.6341 0.397135C16.9661 0.33138 17.2995 0.273438 17.6335 0.223958C17.9681 0.173828 18.304 0.132813 18.6406 0.0996094C18.9772 0.0664064 19.3145 0.0416666 19.6523 0.0247396C19.9896 0.00846342 20.3281 0 20.666 0C21.0046 0 21.3424 0.00846342 21.6803 0.0247396C22.0176 0.0416666 22.3548 0.0664064 22.6914 0.0996094C23.028 0.132813 23.3639 0.173828 23.6986 0.223958C24.0332 0.273438 24.3659 0.33138 24.6979 0.397135C25.0293 0.462891 25.3594 0.537109 25.6875 0.619141C26.0156 0.701823 26.3411 0.791667 26.6654 0.889974C26.9889 0.988281 27.3099 1.0944 27.6283 1.20833C27.9466 1.32227 28.2624 1.44401 28.5749 1.57292Z" fill="#E67C30"/>
<path d="M26.5514 10.929C26.5514 14.1797 23.9166 16.8145 20.666 16.8145C17.4153 16.8145 14.7806 14.1797 14.7806 10.929C14.7806 7.67839 17.4153 5.04297 20.666 5.04297C23.9166 5.04297 26.5514 7.67578 26.5514 10.929Z" fill="white"/>
<path d="M20.666 18.8275C14.6335 18.8275 9.74414 23.7168 9.74414 29.7494C9.74414 31.3321 11.0273 32.6159 12.6107 32.6159H28.7214C30.3047 32.6159 31.5879 31.3321 31.5879 29.7494C31.5879 23.7168 26.6986 18.8275 20.666 18.8275Z" fill="white"/>
</svg>
