<svg width="36" height="36" viewBox="0 0 36 36" fill="none" xmlns="http://www.w3.org/2000/svg">
<mask id="mask0_2243_2617" style="mask-type:luminance" maskUnits="userSpaceOnUse" x="0" y="0" width="36" height="36">
<path d="M0 0H36V36H0V0Z" fill="white"/>
</mask>
<g mask="url(#mask0_2243_2617)">
<path d="M6.75329 2.09281C4.18344 2.09281 2.09281 4.18344 2.09281 6.75329V29.248C2.09281 31.8179 4.18344 33.9085 6.75329 33.9085H29.248C31.8179 33.9085 33.9085 31.8179 33.9085 29.248V6.75329C33.9085 4.18344 31.8179 2.09281 29.248 2.09281H6.75329ZM29.248 36.0013H6.75329C3.02951 36.0013 0 32.9714 0 29.248V6.75329C0 3.02951 3.02951 0 6.75329 0H29.248C32.9718 0 36.0013 3.02951 36.0013 6.75329V29.248C36.0013 32.9714 32.9718 36.0013 29.248 36.0013Z" fill="#E67C30"/>
</g>
<mask id="mask1_2243_2617" style="mask-type:luminance" maskUnits="userSpaceOnUse" x="6" y="7" width="24" height="23">
<path d="M6.9978 7H29.1217V29.0998H6.9978V7Z" fill="white"/>
</mask>
<g mask="url(#mask1_2243_2617)">
<path d="M28.3182 19.7783C28.7523 19.7783 29.1073 19.4237 29.1073 18.9901V17.0838C29.1073 16.6502 28.7523 16.2956 28.3182 16.2956H27.4986C27.0645 16.2956 26.605 15.9561 26.4772 15.5417L25.778 13.8461C25.5727 13.464 25.6557 12.9006 25.9627 12.5942L26.5428 12.0147C26.8496 11.7081 26.8499 11.2065 26.5428 10.8999L25.1933 9.55194C24.8863 9.24529 24.3841 9.24529 24.0771 9.55194L23.497 10.1314C23.19 10.438 22.6256 10.521 22.2433 10.3156L20.5454 9.61727C20.1305 9.48981 19.7912 9.0309 19.7912 8.59732V7.7787C19.7912 7.34513 19.4362 6.99048 19.0021 6.99048H17.0935C16.6594 6.99048 16.3041 7.34513 16.3041 7.7787V8.59732C16.3041 9.0309 15.9645 9.48981 15.5499 9.61727L13.8523 10.3156C13.4697 10.521 12.9056 10.4378 12.5988 10.1311L12.0187 9.55167C11.7117 9.24502 11.2095 9.24502 10.9023 9.55167L9.553 10.8996C9.24598 11.2062 9.24598 11.7078 9.553 12.0145L10.1334 12.5939C10.4404 12.9006 10.5232 13.464 10.3181 13.8461L9.61867 15.5417C9.49106 15.9561 9.03161 16.2953 8.59752 16.2953H7.77819C7.3441 16.2953 6.98877 16.6499 6.98877 17.0835V18.9901C6.98877 19.4237 7.3441 19.7783 7.77819 19.7783H8.59752C9.03161 19.7783 9.49106 20.1172 9.61867 20.5319L10.3184 22.2278C10.5237 22.6096 10.4407 23.1733 10.1337 23.4797L9.55326 24.0594C9.24625 24.3658 9.24625 24.8674 9.55326 25.174L10.9023 26.5219C11.2095 26.8286 11.7117 26.8283 12.0187 26.5219L12.5991 25.9422C12.9061 25.6359 13.4702 25.5527 13.8525 25.758L15.5502 26.4563C15.965 26.5838 16.3044 27.0427 16.3044 27.4766V28.2952C16.3044 28.7288 16.6597 29.0834 17.0938 29.0834H19.0023C19.4364 29.0834 19.7915 28.7288 19.7915 28.2952V27.4763C19.7915 27.0427 20.1308 26.5838 20.5457 26.4561L22.2436 25.758C22.6259 25.5527 23.1903 25.6356 23.497 25.9422L24.0777 26.5219C24.3844 26.8286 24.8868 26.8283 25.1936 26.5219L26.5431 25.174C26.8499 24.8676 26.8501 24.3658 26.5431 24.0591L25.963 23.4797C25.6557 23.1731 25.573 22.6094 25.7782 22.2275L26.4772 20.5319C26.6048 20.1172 27.0645 19.7783 27.4989 19.7783H28.3182ZM18.0477 22.5814C15.535 22.5814 13.4977 20.5468 13.4977 18.0368C13.4977 15.5268 15.535 13.492 18.0477 13.492C20.5606 13.492 22.5979 15.5268 22.5979 18.0368C22.5979 20.5468 20.5606 22.5814 18.0477 22.5814Z" fill="#E67C30"/>
</g>
</svg>
